PathFileType	4	(X/Y/Z)	C:\Users\86182\Documents\cortex\Trimmed_M1_H8.trc
DataRate	CameraRate	NumFrames	NumMarkers	Units	OrigDataRate	OrigDataStartFrame	OrigNumFrames
100.00	100.00	       126	2	mm	100.00	721	       901
Frame#	Time	gripper			box			
		X1	Y1	Z1	X2	Y2	Z2	

721	7.200	203.24155	206.87294	293.56436	229.43980	202.95897	145.23230	
722	7.210	203.24155	206.87294	293.56436	229.43855	202.95927	145.23401	
723	7.220	203.24155	206.87294	293.56436	229.43648	202.96005	145.23627	
724	7.230	203.24155	206.87294	293.56436	229.43321	202.96120	145.23891	
725	7.240	203.24155	206.87294	293.56436	229.42865	202.96263	145.24161	
726	7.250	203.24155	206.87294	293.56436	229.42328	202.96417	145.24397	
727	7.260	203.24155	206.87294	293.56436	229.41809	202.96559	145.24567	
728	7.270	203.24155	206.87294	293.56436	229.41385	202.96678	145.24646	
729	7.280	203.24155	206.87294	293.56436	229.41080	202.96771	145.24628	
730	7.290	203.24155	206.87294	293.56436	229.40955	202.96840	145.24521	
731	7.300	203.24155	206.87294	293.56439	229.41139	202.96858	145.24333	
732	7.310	203.24155	206.87294	293.56439	229.41676	202.96800	145.24078	
733	7.320	203.24155	206.87294	293.56439	229.42413	202.96672	145.23782	
734	7.330	203.24155	206.87294	293.56436	229.43156	202.96524	145.23459	
735	7.340	203.24155	206.87294	293.56436	229.43822	202.96413	145.23108	
736	7.350	203.24155	206.87294	293.56433	229.44415	202.96382	145.22736	
737	7.360	203.24153	206.87292	293.56433	229.44975	202.96455	145.22362	
738	7.370	203.24152	206.87292	293.56433	229.45537	202.96646	145.21988	
739	7.380	203.24150	206.87289	293.56430	229.46130	202.96959	145.21616	
740	7.390	203.24147	206.87288	293.56427	229.46768	202.97397	145.21243	
741	7.400	203.24146	206.87286	293.56427	229.47368	202.97917	145.20912	
742	7.410	203.24142	206.87283	293.56424	229.47726	202.98416	145.20700	
743	7.420	203.24142	206.87283	293.56424	229.47627	202.98779	145.20694	
744	7.430	203.24147	206.87286	293.56430	229.46989	202.98930	145.20944	
745	7.440	203.24156	206.87296	293.56439	229.45956	202.98849	145.21445	
746	7.450	203.24174	206.87311	293.56458	229.44876	202.98567	145.22113	
747	7.460	203.24203	206.87335	293.56488	229.44113	202.98148	145.22818	
748	7.470	203.24243	206.87370	293.56525	229.43829	202.97696	145.23433	
749	7.480	203.24292	206.87415	293.56573	229.43982	202.97319	145.23862	
750	7.490	203.24344	206.87463	293.56622	229.44479	202.97104	145.24049	
751	7.500	203.24391	206.87508	293.56665	229.45245	202.97092	145.23975	
752	7.510	203.24426	206.87543	293.56696	229.46207	202.97275	145.23660	
753	7.520	203.24437	206.87556	293.56702	229.47273	202.97606	145.23172	
754	7.530	203.24420	206.87547	293.56677	229.48367	202.98033	145.22580	
755	7.540	203.24388	206.87524	293.56638	229.49448	202.98515	145.21930	
756	7.550	203.24359	206.87506	293.56598	229.50478	202.99013	145.21259	
757	7.560	203.24355	206.87514	293.56580	229.51395	202.99475	145.20618	
758	7.570	203.24379	206.87556	293.56577	229.52151	202.99849	145.20078	
759	7.580	203.24432	206.87630	293.56595	229.52721	203.00102	145.19713	
760	7.590	203.24500	206.87720	293.56622	229.53061	203.00224	145.19562	
761	7.600	203.24556	206.87796	293.56647	229.53120	203.00227	145.19604	
762	7.610	203.24577	206.87830	293.56650	229.52879	203.00134	145.19775	
763	7.620	203.24554	206.87805	293.56628	229.52370	202.99995	145.20016	
764	7.630	203.24492	206.87729	293.56595	229.51672	202.99870	145.20288	
765	7.640	203.24409	206.87624	293.56555	229.50871	202.99808	145.20590	
766	7.650	203.24332	206.87521	293.56522	229.50008	202.99815	145.20935	
767	7.660	203.24271	206.87437	293.56500	229.49075	202.99841	145.21333	
768	7.670	203.24232	206.87381	293.56488	229.48085	202.99814	145.21774	
769	7.680	203.24213	206.87350	293.56488	229.47040	202.99683	145.22235	
770	7.690	203.24207	206.87335	293.56494	229.45897	202.99434	145.22696	
771	7.700	203.24203	206.87329	293.56497	229.44687	202.99071	145.23125	
772	7.710	203.24197	206.87323	293.56491	229.43596	202.98598	145.23468	
773	7.720	203.24188	206.87315	293.56482	229.42799	202.98044	145.23679	
774	7.730	203.24179	206.87309	293.56470	229.42296	202.97473	145.23755	
775	7.740	203.24168	206.87303	293.56458	229.42026	202.96959	145.23732	
776	7.750	203.24161	206.87299	293.56445	229.41998	202.96547	145.23636	
777	7.760	203.24156	206.87294	293.56439	229.42212	202.96242	145.23489	
778	7.770	203.24152	206.87292	293.56433	229.42578	202.96036	145.23322	
779	7.780	203.24150	206.87291	293.56430	229.42984	202.95915	145.23141	
780	7.790	203.24149	206.87289	293.56427	229.43384	202.95883	145.22937	
781	7.800	203.24147	206.87288	293.56427	229.43811	202.95949	145.22699	
782	7.810	203.24146	206.87288	293.56427	229.44313	202.96114	145.22433	
783	7.820	203.24147	206.87288	293.56427	229.44913	202.96367	145.22144	
784	7.830	203.24149	206.87289	293.56427	229.45570	202.96675	145.21841	
785	7.840	203.24153	206.87294	293.56433	229.46185	202.96977	145.21570	
786	7.850	203.24164	206.87302	293.56445	229.46649	202.97211	145.21378	
787	7.860	203.24179	206.87315	293.56461	229.46901	202.97337	145.21324	
788	7.870	203.24200	206.87334	293.56482	229.46950	202.97354	145.21446	
789	7.880	203.24228	206.87357	293.56512	229.46873	202.97296	145.21748	
790	7.890	203.24257	206.87383	293.56543	229.46773	202.97211	145.22198	
791	7.900	203.24281	206.87402	293.56567	229.46706	202.97131	145.22739	
792	7.910	203.24292	206.87411	293.56577	229.46661	202.97067	145.23291	
793	7.920	203.24281	206.87402	293.56567	229.46588	202.97012	145.23779	
794	7.930	203.24257	206.87383	293.56543	229.46437	202.96954	145.24152	
795	7.940	203.24228	206.87357	293.56512	229.46181	202.96890	145.24373	
796	7.950	203.24200	206.87334	293.56482	229.45801	202.96811	145.24431	
797	7.960	203.24179	206.87315	293.56461	229.45311	202.96707	145.24344	
798	7.970	203.24164	206.87302	293.56445	229.44762	202.96576	145.24142	
799	7.980	203.24155	206.87294	293.56436	229.44244	202.96423	145.23854	
800	7.990	203.24149	206.87289	293.56430	229.43837	202.96259	145.23526	
801	8.000	203.24149	206.87288	293.56427	229.43539	202.96101	145.23212	
802	8.010	203.24149	206.87289	293.56427	229.43304	202.95964	145.22942	
803	8.020	203.24149	206.87289	293.56430	229.43089	202.95856	145.22723	
804	8.030	203.24150	206.87291	293.56430	229.42882	202.95787	145.22565	
805	8.040	203.24152	206.87292	293.56433	229.42691	202.95758	145.22467	
806	8.050	203.24153	206.87292	293.56433	229.42529	202.95764	145.22421	
807	8.060	203.24155	206.87294	293.56433	229.42429	202.95789	145.22415	
808	8.070	203.24155	206.87294	293.56433	229.42427	202.95815	145.22433	
809	8.080	203.24155	206.87294	293.56436	229.42540	202.95824	145.22478	
810	8.090	203.24155	206.87294	293.56436	229.42732	202.95816	145.22552	
811	8.100	203.24155	206.87294	293.56436	229.42950	202.95801	145.22661	
812	8.110	203.24155	206.87294	293.56436	229.43172	202.95792	145.22791	
813	8.120	203.24155	206.87294	293.56436	229.43393	202.95799	145.22939	
814	8.130	203.24155	206.87294	293.56436	229.43622	202.95830	145.23096	
815	8.140	203.24155	206.87294	293.56436	229.43860	202.95883	145.23244	
816	8.150	203.24155	206.87294	293.56436	229.44098	202.95956	145.23358	
817	8.160	203.24155	206.87294	293.56433	229.44322	202.96040	145.23410	
818	8.170	203.24155	206.87294	293.56433	229.44508	202.96121	145.23398	
819	8.180	203.24155	206.87294	293.56433	229.44632	202.96184	145.23335	
820	8.190	203.24155	206.87294	293.56433	229.44656	202.96207	145.23262	
821	8.200	203.24155	206.87294	293.56433	229.44583	202.96185	145.23212	
822	8.210	203.24155	206.87294	293.56433	229.44467	202.96141	145.23199	
823	8.220	203.24155	206.87294	293.56433	229.44380	202.96104	145.23221	
824	8.230	203.24155	206.87294	293.56433	229.44356	202.96094	145.23254	
825	8.240	203.24155	206.87294	293.56433	229.44395	202.96107	145.23279	
826	8.250	203.24155	206.87294	293.56433	229.44469	202.96138	145.23285	
827	8.260	203.24155	206.87294	293.56433	229.44543	202.96172	145.23265	
828	8.270	203.24155	206.87294	293.56433	229.44589	202.96198	145.23207	
829	8.280	203.24155	206.87294	293.56433	229.44595	202.96213	145.23096	
830	8.290	203.24153	206.87294	293.56433	229.44577	202.96223	145.22931	
831	8.300	203.24153	206.87294	293.56436	229.44547	202.96233	145.22729	
832	8.310	203.24153	206.87292	293.56433	229.44496	202.96233	145.22528	
833	8.320	203.24153	206.87292	293.56433	229.44406	202.96213	145.22377	
834	8.330	203.24153	206.87292	293.56433	229.44287	202.96170	145.22302	
835	8.340	203.24153	206.87292	293.56436	229.44174	202.96123	145.22301	
836	8.350	203.24155	206.87294	293.56436	229.44090	202.96080	145.22366	
837	8.360	203.24156	206.87296	293.56439	229.44023	202.96037	145.22491	
838	8.370	203.24161	206.87299	293.56442	229.43953	202.95988	145.22662	
839	8.380	203.24165	206.87303	293.56445	229.43886	202.95938	145.22861	
840	8.390	203.24173	206.87309	293.56454	229.43842	202.95897	145.23062	
841	8.400	203.24179	206.87315	293.56461	229.43828	202.95869	145.23251	
842	8.410	203.24185	206.87321	293.56467	229.43839	202.95857	145.23407	
843	8.420	203.24188	206.87323	293.56470	229.43863	202.95854	145.23521	
844	8.430	203.24185	206.87321	293.56467	229.43890	202.95859	145.23589	
845	8.440	203.24179	206.87315	293.56461	229.43918	202.95868	145.23608	
846	8.450	203.24173	206.87309	293.56454	229.43947	202.95882	145.23589	
